# xmcd
#
# Track frame offsets:
#	150
#	12246
#	24702
#	36663
#	48653
#	61680
#	73615
#	88033
#	100201
#	113968
#	125379
#	138784
#	152086
#	163764
#	175883
#	187782
#	201916
#	213373
#	226051
#	237591
#	253215
#	267232
#
# Disc length: 3718 seconds
#
# Revision: 2
# Processed by: cddbd v1.5.1PL2 Copyright (c) Steve Scherf et al.
# Submitted via: audiograbber 1.82.00
#
DISCID=380e8416
DTITLE=Various Artist - Vintage Country and Western: A Nostalgic Collection Vol. 2
DYEAR=2000
DGENRE=Country
TTITLE0=Bob Willis and Texas Playboys - Time Changes Everything (Bob Wills)
TTITLE1=Roy Acuff and The Smokey Mountain Boys - Wreck On The Highway 
TTITLE2=Adolf Hofner and His San Antonios - Alamo Rag (Adolf Hofner and His San Ant
TTITLE2=onios)
TTITLE3=Roy Rogers - When The Black Sheep Gets The Blues (Roy Rogers)
TTITLE4=Sons Of The Pioneers - Billy The Kid (Sons Of The Pioneers)
TTITLE5=Delmore Brothers - Brown's Ferry Blues (Delmore Bros)
TTITLE6=Ken Maynard - The Lone Star Trail (Ken Maynard)
TTITLE7=Bob Willis - Take Me Back To Tulsa 
TTITLE8=Buell Kazee - The Butcher's Boy ()
TTITLE9=Ernest Tubb and The Troubadours - I Ain't Hony Tonkin' Anymore (
TTITLE10=Jimmie Rodgers - Blue Yodel #8 (Jimmie Rodgers)
TTITLE11=Dock Boggs - Country Blues (Dock Boggs)
TTITLE12=Bob Willis - That's What I Like About The South (Bob Wills)
TTITLE13=Shelley Lee Alley and His Alley Cats - Women, Women, Women 
TTITLE14=Jimmy Revard and His Oklahoma Playboys - Fox and Hounds
TTITLE15=Marc Williams - Sioux Indians (Marc Williams)
TTITLE16=Roy Rogers - Hi Ho Silver (Roy Rogers)
TTITLE17=Tex Ritter - Sam Hall (Tex Ritter)
TTITLE18=Monroe Brothers - Sinner, You Better Get Ready (Monroe Bros)
TTITLE19=Mac McClintock - The Old Chisholm Trail (Mac McClintock)
TTITLE20=Carl T Sprague - Following The Cow Trail (Carl T. Sprague)
TTITLE21=Tex Ritter - The Hills Of Old Wyomin' (Tex Ritter)
EXTD=
EXTT0=
EXTT1=
EXTT2=
EXTT3=
EXTT4=
EXTT5=
EXTT6=
EXTT7=
EXTT8=
EXTT9=
EXTT10=
EXTT11=
EXTT12=
EXTT13=
EXTT14=
EXTT15=
EXTT16=
EXTT17=
EXTT18=
EXTT19=
EXTT20=
EXTT21=
PLAYORDER=
